<svg xmlns="http://www.w3.org/2000/svg" style="display: none">

  <symbol viewBox="0 0 57 22" id="logo">
    <path d="M27.7339 0L22.0582 17.0732H17.7457L13.9289 5.51219L9.98817 17.0732H5.70045L0 0H4.1638L8.07976 12L12.1692 0H15.8869L19.8524 12.0976L23.8923 0H27.7339Z" fill="#141517" />
    <path d="M34.0886 3.7561C36.154 3.7561 37.7402 4.2439 38.8473 5.21951C39.9543 6.17886 40.5078 7.63414 40.5078 9.58536V17.0732H36.8893V15.439C36.1623 16.6585 34.8074 17.2683 32.8246 17.2683C31.8002 17.2683 30.9079 17.0976 30.1479 16.7561C29.4043 16.4146 28.8343 15.9431 28.4378 15.3415C28.0412 14.7398 27.8429 14.0569 27.8429 13.2927C27.8429 12.0732 28.3056 11.1138 29.2309 10.4146C30.1727 9.71545 31.6184 9.36585 33.5681 9.36585H36.6414C36.6414 8.53658 36.3853 7.90244 35.8731 7.46342C35.3609 7.00813 34.5926 6.78049 33.5681 6.78049C32.8577 6.78049 32.1554 6.89431 31.4615 7.12195C30.784 7.33333 30.2057 7.62602 29.7265 8L28.3386 5.34146C29.0656 4.8374 29.9331 4.44715 30.941 4.17073C31.9654 3.89431 33.0146 3.7561 34.0886 3.7561ZM33.7912 14.7073C34.4521 14.7073 35.0387 14.561 35.5509 14.2683C36.0631 13.9593 36.4266 13.5122 36.6414 12.9268V11.5854H33.9895C32.4033 11.5854 31.6102 12.0976 31.6102 13.122C31.6102 13.6098 31.8002 14 32.1802 14.2927C32.5768 14.5691 33.1138 14.7073 33.7912 14.7073Z" fill="#141517" />
    <path d="M57 3.95122L50.9774 17.878C50.366 19.3902 49.6059 20.4553 48.6972 21.0732C47.8049 21.6911 46.7227 22 45.4504 22C44.7564 22 44.0707 21.8943 43.3933 21.6829C42.7158 21.4715 42.1623 21.1789 41.7327 20.8049L43.1454 18.0976C43.4429 18.3577 43.7816 18.561 44.1616 18.7073C44.5582 18.8537 44.9465 18.9268 45.3265 18.9268C45.8552 18.9268 46.2848 18.7967 46.6153 18.5366C46.9457 18.2927 47.2432 17.878 47.5075 17.2927L47.5571 17.1707L41.7823 3.95122H45.7726L49.5151 12.8537L53.2823 3.95122H57Z" fill="#141517" />
    <path d="M57.0173 3.9502L50.9946 17.877C50.3833 19.3892 49.6232 20.4543 48.7145 21.0721C47.8222 21.69 46.74 21.999 45.4677 21.999C44.7737 21.999 44.088 21.8933 43.4106 21.6819C42.7331 21.4705 42.1796 21.1778 41.75 20.8039L43.1627 18.0965C43.4601 18.3567 43.7989 18.5599 44.1789 18.7063C44.5754 18.8526 44.9637 18.9258 45.3438 18.9258C45.8725 18.9258 46.3021 18.7957 46.6326 18.5356C46.963 18.2917 47.2604 17.877 47.5248 17.2917L47.5744 17.1697L49.5323 12.8526L53.2996 3.9502H57.0173Z" fill="#FE7865" />
  </symbol>

  <symbol viewBox="0 0 22 22" id="tick">
    <path fill-rule="evenodd" clip-rule="evenodd" d="M17.6138 5.21059C18.0498 5.54958 18.1285 6.17784 17.7895 6.61385L10.0145 16.6138C9.84138 16.8365 9.58223 16.9758 9.30094 16.9972C9.01966 17.0186 8.74242 16.9202 8.53757 16.7262L4.3125 12.7262C3.91144 12.3465 3.89412 11.7136 4.27382 11.3126C4.65351 10.9115 5.28644 10.8942 5.6875 11.2739L9.11216 14.5161L16.2105 5.38625C16.5495 4.95024 17.1778 4.87159 17.6138 5.21059Z"/>
  </symbol>

  <symbol viewBox="0 0 17 24" id="tel">
    <path d="M1.39635 6.62432C1.31179 5.42623 1.57753 4.24606 2.28114 3.29684C2.89115 2.43632 3.68536 1.96636 4.64264 1.69172C5.44893 1.4525 5.9774 1.74561 6.20992 2.64204C6.54211 3.98224 7.01622 5.3225 7.18836 6.73361C7.24271 7.35485 6.84108 8.23322 6.40623 8.6856C5.31608 9.75888 5.54257 10.5399 6.37 12.1643C6.62669 12.6881 7.03436 13.5934 7.82858 14.7919C8.65601 15.9992 9.09389 16.6472 10.1569 16.0975C11.3376 15.5035 12.1983 15.8855 13.0891 16.8444C13.6931 17.5369 14.3574 18.1318 14.9614 18.8243C15.8341 19.8542 15.7949 20.5641 15.1124 21.2915C13.8833 22.6309 11.854 23.0736 10.3441 22.1766C9.51064 21.6881 8.68018 21.0487 8.01884 20.303C5.10471 16.9825 3.00291 13.1212 1.73759 8.76321C1.53526 8.02654 1.44165 7.28104 1.39635 6.62432Z" stroke-width="2" stroke-miterlimit="10"/>
  </symbol>

  <symbol viewBox="0 0 26 20" id="mail">
    <path d="M24.2273 0H1.77273C0.768182 0 0 0.764706 0 1.76471V18.2353C0 19.2353 0.768182 20 1.77273 20H24.2273C25.2318 20 26 19.2353 26 18.2353V1.76471C26 0.764706 25.2318 0 24.2273 0ZM24.2273 17L19.5591 12.3529C19.2045 12 18.6727 12 18.3182 12.3529C17.9636 12.7059 17.9636 13.2353 18.3182 13.5882L22.9864 18.2353H3.01362L7.68182 13.5882C8.03636 13.2353 8.03636 12.7059 7.68182 12.3529C7.32727 12 6.79547 12 6.44092 12.3529L1.77273 17V5.70585L12.4091 13.7059C12.5864 13.8236 12.7636 13.8823 12.9409 13.8823C13.1182 13.8823 13.2954 13.8236 13.4727 13.7059L24.2273 5.70585V17ZM24.2273 1.76471V3.4706L12.9409 11.8235L1.77273 3.4706V1.76471H24.2273Z"/>
  </symbol>

</svg>
